<svg id="Layer_1" data-name="Layer 1" xmlns="http://www.w3.org/2000/svg" viewBox="0 0 74.96 74.96"><defs><style>.cls-1{fill:#231f20}.cls-2{fill:none;stroke:#231f20;stroke-miterlimit:10}</style></defs><title>logo</title><path class="cls-1" d="M51.18 48.21c0 5.63-6.43 12.43-15.34 12.43-7.61 0-10.76-2.91-10.76-8.35 0-3 1.61-5.32 4.58-6.68-2.29-.8-3-2.23-3-4.58a9.47 9.47 0 0 1 3.3-6.55 9.28 9.28 0 0 1-3.9-7.86c0-5.69 3.77-10.27 11.13-10.27a12.35 12.35 0 0 1 3.9.56h10.15a14.86 14.86 0 0 1 .43 3.84 50.5 50.5 0 0 0-6-1 9.88 9.88 0 0 1 2.81 6.5c0 5.75-3.9 10.39-11.2 10.39a13.52 13.52 0 0 1-4.76-.8 4.34 4.34 0 0 0-1.55 2.91c0 2.23 1.05 2.6 9 2.6 8.3-.01 11.21 1.85 11.21 6.86zm-5.13 2.41c0-3.15-1.73-4.33-10.21-4.33-1.3 0-2.41-.06-3.34-.12A5.61 5.61 0 0 0 30.4 51c0 4.21 1.86 6.37 6.93 6.37 5.43-.01 8.71-3.22 8.71-6.75zm-14.3-24.81c0 5.13 2.35 8 6.31 8 2.72 0 4.64-2.29 4.64-6.62s-2.23-8-6.12-8c-3.28-.06-4.83 3.22-4.83 6.62z"/><path class="cls-2" d="M.5.5h73.96v73.96H.5z"/></svg>