<?xml version="1.0" encoding="utf-8"?>
<!-- Generator: Adobe Illustrator 21.0.2, SVG Export Plug-In . SVG Version: 6.00 Build 0)  -->
<svg version="1.1" id="Layer_1" xmlns="http://www.w3.org/2000/svg" xmlns:xlink="http://www.w3.org/1999/xlink" x="0px" y="0px"
	 viewBox="0 0 80 80" style="enable-background:new 0 0 80 80;" xml:space="preserve">
<style type="text/css">
	.st0{fill:#191718;}
</style>
<title>icon-linkedin</title>
<rect x="11.9" y="30" class="st0" width="11.9" height="38.2"/>
<path class="st0" d="M17.8,24.8c-3.8,0-6.9-3.1-6.9-6.9S14,11,17.8,11s6.9,3.1,6.9,6.9S21.6,24.8,17.8,24.8L17.8,24.8z"/>
<path class="st0" d="M68.2,68.2H56.3V49.6c0-4.4-0.1-10.1-6.2-10.1S43,44.3,43,49.3v18.9H31.2V30h11.4v5.2h0.2
	c2.3-4,6.6-6.4,11.2-6.2c12.1,0,14.2,8,14.2,18.2V68.2z"/>
</svg>
