<?xml version="1.0" encoding="utf-8"?>
<!-- Generator: Adobe Illustrator 21.0.2, SVG Export Plug-In . SVG Version: 6.00 Build 0)  -->
<svg version="1.1" id="Layer_1" xmlns="http://www.w3.org/2000/svg" xmlns:xlink="http://www.w3.org/1999/xlink" x="0px" y="0px"
	 viewBox="0 0 80 80" style="enable-background:new 0 0 80 80;" xml:space="preserve">
<style type="text/css">
	.st0{fill:#191718;}
</style>
<title>icon-mail</title>
<path class="st0" d="M18.9,18.5h42c2.2,0,4.1,1.6,4.6,3.7L39.9,47.8L14.3,22.2C14.8,20,16.7,18.5,18.9,18.5z M14.4,25.4l14.4,14.4
	L14.4,54.1L14.4,25.4L14.4,25.4z M60.9,60.9h-42c-2.1-0.1-3.9-1.5-4.5-3.5l15.8-15.9l8.8,8.8c0.5,0.5,1.2,0.5,1.7,0l9.1-9.1
	l15.7,15.9C65,59.2,63.1,60.8,60.9,60.9z M65.6,53.7L51.5,39.5l14.1-14.1V53.7L65.6,53.7z"/>
</svg>
