<?xml version="1.0" encoding="utf-8"?>
<!-- Generator: Adobe Illustrator 21.0.2, SVG Export Plug-In . SVG Version: 6.00 Build 0)  -->
<svg version="1.1" id="Layer_1" xmlns="http://www.w3.org/2000/svg" xmlns:xlink="http://www.w3.org/1999/xlink" x="0px" y="0px"
	 viewBox="0 0 80 80" style="enable-background:new 0 0 80 80;" xml:space="preserve">
<style type="text/css">
	.st0{fill:#191718;}
</style>
<title>icon-phone</title>
<path class="st0" d="M18.9,17.5c2-1.9,7.8-2.3,7.9-1.2s5.2,12.5,5.3,13.5s-3.5,4.5-4.5,5.6s6.9,9.9,7,10.1s9.1,8,10.1,7
	s4.5-4.5,5.6-4.5s12.4,5.3,13.5,5.3c1,0,0.7,5.9-1.2,7.9c-1.7,1.7-10.3,7.7-25.2-3.1c-1.6-0.9-4.2-3-8.2-7c-3.9-4-6.1-6.6-7-8.2
	C11.2,27.8,17.2,19.1,18.9,17.5z"/>
</svg>
