<svg id="3cf407bb-6d49-4c43-83ee-9067fceadd40" data-name="Layer 1" xmlns="http://www.w3.org/2000/svg" viewBox="0 0 229.33 75.87"><defs><style>.c6e0692b-ac49-438a-9a6c-ec795accfa50{fill:#191718}</style></defs><title>logo</title><path class="c6e0692b-ac49-438a-9a6c-ec795accfa50" d="M44.72 54.57c0 9.64-11 21.3-26.28 21.3-13 0-18.44-5-18.44-14.3 0-5.19 2.75-9.11 7.84-11.44-3.92-1.38-5.09-3.81-5.09-7.84S5 34.33 8.37 31A15.89 15.89 0 0 1 1.7 17.59C1.7 7.84 8.16 0 20.77 0a21.15 21.15 0 0 1 6.68 1h17.37a25.45 25.45 0 0 1 .74 6.57 86.85 86.85 0 0 0-10.28-1.7A16.91 16.91 0 0 1 40.16 17c0 9.85-6.68 17.8-19.18 17.8a23.17 23.17 0 0 1-8.16-1.38c-1.91 1.91-2.65 3.6-2.65 5 0 3.81 1.8 4.45 15.36 4.45 14.21-.06 19.19 3.13 19.19 11.7zm-8.8 4.13c0-5.4-3-7.42-17.48-7.42-2.23 0-4.13-.11-5.72-.21-2.75 2.33-3.6 4.77-3.6 8.26 0 7.21 3.18 10.91 11.87 10.91 9.31.01 14.93-5.5 14.93-11.54zM11.44 16.21c0 8.79 4 13.67 10.81 13.67 4.66 0 8-3.92 8-11.34S26.38 4.77 19.71 4.77c-5.62 0-8.27 5.61-8.27 11.44zM90.55 3.5a96.65 96.65 0 0 0-.74 12.5 21.11 21.11 0 0 1-6 1c-.32-6.78-2.44-8.27-5.19-8.27-3.71 0-9 6.78-9 15v10.18c0 9.22 2.75 11 9.43 11.34a13.77 13.77 0 0 1 .53 4.56c-3.28-.21-8.37-.32-13.35-.32s-11.23.11-14 .32a13.77 13.77 0 0 1 .53-4.56C58.34 44.93 60 43.13 60 36V15c0-5-1-7.31-8-7.52a6.75 6.75 0 0 1 1-3.88c4.38-.32 11-1.9 14.24-3.6 1.27.42 2.33 1.59 2.33 4.66A49.36 49.36 0 0 1 68.19 15a26.48 26.48 0 0 1 2.23-5.51C73.49 4.66 77.73 1 83.24 1a11.38 11.38 0 0 1 7.31 2.5zm41.21 31.57c0 5 .74 7.21 6.57 7.21a15.42 15.42 0 0 1-.64 4.87 33.15 33.15 0 0 0-12.08 3.28C124.13 49.79 123 49 123 44.6a28.15 28.15 0 0 1 .21-3 13.28 13.28 0 0 1-3.6 5c-2.44 2.12-5.93 3.6-11 3.6C100 50.23 95.1 46 95.1 39c0-13.77 18.44-16.64 27.13-17.91 0-8.69-.42-10.91-2.23-13.14a8.08 8.08 0 0 0-6.57-3.18c-7.1 0-9.11 7.84-9.32 12.29-1.59 0-4.45-.21-5.51-.74a46.18 46.18 0 0 0-.53-11.55 42 42 0 0 1 18-4.77c5.19 0 8.9 1.7 11.23 4 3.6 3.6 4.45 8.9 4.45 18.33v12.74zm-9.54-9.64c-7.21 1-16.85 2.23-16.85 11.44 0 5.19 3 7.52 6.25 7.52 4.56 0 10.6-4.24 10.6-14.94v-4zm20.41 0c0-12.72 7.74-25.43 22-25.43 6.46 0 12 1.59 16 4.77a77.75 77.75 0 0 0-.74 12.08 12.12 12.12 0 0 1-4.87.85C174.21 9.54 170 5 163.82 5c-7 0-11.34 6.78-11.34 18.86 0 10.6 5.3 20.56 15.15 20.56a14.58 14.58 0 0 0 11.76-6.15 5.62 5.62 0 0 1 2.65 3c-3.81 6-9.32 9.22-17.38 9.22-10.8 0-22-8.42-22-25.06zm86 16.21c-4.87 6.36-11.13 8.79-18.86 8.79-15 0-22.46-11.34-22.46-25.22.03-13.55 8.4-25.21 21.97-25.21 13.77 0 19 9.85 19.81 21.93a8.67 8.67 0 0 1-1.59 3.6c-4.45 0-18.65 0-29.67.53.64 9.43 4.24 18.44 15.36 18.44a17.27 17.27 0 0 0 12.93-6.15 5.54 5.54 0 0 1 2.55 3.29zm-30.9-20.87h20.34c0-9.32-3.6-15.68-9.75-15.68-4.98 0-10.06 3.39-10.59 15.68zM61 73.32v-9.21h3.87a3 3 0 0 1 2.85 3 2.89 2.89 0 0 1-2.78 3H62.4v3.2H61zm1.45-4.49h2.4a1.53 1.53 0 0 0 1.4-1.65v-.08a1.57 1.57 0 0 0-1.42-1.71H62.4zm18.15-.05v-4.67H82v4.67c0 2.52-1.14 4.6-4 4.6s-4-2.22-4-4.6v-4.67h1.45v4.67c0 1.69.61 3.29 2.52 3.29s2.58-1.64 2.58-3.29zm13 4.54h-4.4v-9.21h4.75A2.23 2.23 0 0 1 96 66.43a2.32 2.32 0 0 1-1.32 2.14 2.33 2.33 0 0 1 1.71 2.35c-.03 1.51-1.31 2.4-2.87 2.4zm-2.94-8V68h2.67a1.28 1.28 0 0 0 1.27-1.29v-.06a1.25 1.25 0 0 0-1.13-1.36h-2.89zm3 3.88h-3V72h2.94a1.37 1.37 0 0 0 1.35-1.39 1.35 1.35 0 0 0-1.26-1.38zm9.51 4.12v-9.21h1.45V72h4.94v1.28h-6.4zm12.85 0v-9.2h1.45v9.2zm12.55-9.26a3.71 3.71 0 0 1 3.45 2l-1.14.77a2.46 2.46 0 0 0-2.36-1.47 3.07 3.07 0 0 0-2.88 3.25v.08a3.17 3.17 0 0 0 2.91 3.39 2.58 2.58 0 0 0 2.4-1.52l1.21.69a4 4 0 0 1-3.66 2.14c-2.54 0-4.33-2.41-4.33-4.75a4.46 4.46 0 0 1 4.34-4.58h.05zm17.57 9.26l3.71-9.21H151l3.7 9.21h-1.54l-1-2.5h-3.55l-1 2.5h-1.55zm4.31-7.59l-1.53 4h3zM161 73.32v-9.21h6.14v1.29h-4.68v2.75h3.92v1.21h-3.92v4H161zm12.64 0v-9.21h6.14v1.29h-4.68v2.75h3.9v1.21h-3.92v4h-1.45zm11.72 0l3.71-9.21h1.19l3.7 9.21h-1.54l-1-2.5h-3.55l-1 2.5h-1.51zm4.31-7.59l-1.53 4h3zm10.6 7.59v-9.2h1.45v9.2zm8.73 0v-9.21h4a3 3 0 0 1 2.85 3 2.79 2.79 0 0 1-1.8 2.71l2.19 3.5h-1.64l-2-3.2h-2.13v3.2zm1.45-4.49H213a1.56 1.56 0 0 0 1.39-1.71 1.63 1.63 0 0 0-1.47-1.71h-2.47zm17.88-2.55a3.77 3.77 0 0 0-2.54-.93c-1.13 0-1.74.48-1.74 1.28s.75 1.08 2.28 1.47c1.82.47 3 .95 3 2.65 0 1.92-1.54 2.67-3.37 2.67a6.3 6.3 0 0 1-3.81-1.24l.68-1.25A5 5 0 0 0 226 72.1c1.1 0 1.75-.42 1.75-1.19s-.92-1.18-2.52-1.6c-1.82-.48-2.74-1-2.74-2.47 0-1.82 1.45-2.8 3.32-2.8a5.24 5.24 0 0 1 3.13 1z" id="9732e0ce-cc58-43ec-a65d-366db6f2fd1f" data-name="Logo"/></svg>