<svg id="Layer_1" xmlns="http://www.w3.org/2000/svg" viewBox="0 0 20.6 17.1"><style>.st0{fill:#ea1d76}.st1{fill:#695a46}</style><path class="st0" d="M16.8 9.6l-.2-1.3-.1-.7V7.3L16 4.4l-.1-.6-7-2.4-.5.4c.3.5.7 1.2 1 1.9L14 5.2l.3 1.4.3 1.5v.2l.2 1.1.1.6v.2l-2 1.7c.2.5.7 1.5.9 1.8l3.2-2.8-.2-1.3z"/><path class="st1" d="M19.1 9.1c-.5-.4-1-.6-1.6-.7-.1 0-.3 0-.4-.1l.3 1.3c.4.1.7.2 1 .5.3.2.4.5.6.8l.3.9c0 .3 0 .7-.1 1-.2 1-.8 1.8-1.6 2.4-.8.6-1.8.7-2.7.4-.3-.1-.5-.2-.7-.4-.3-.3-.6-.7-.8-1.1-.2-.3-.3-.7-.5-1-.1-.3-.3-.6-.4-.8 0-.1-.1-.2-.1-.3-.4-.9-.8-1.8-1-2.4 0-.1-.1-.2-.1-.3 1.2 0 2.1.1 2.9.1L14 8c-.9-.1-2-.1-3.3-.1-.1-.2-.2-.5-.3-.8C9.9 6 9.5 5 9.1 4 9 4 9 3.9 9 3.9c-.3-.6-.7-1.3-1-1.8-.6-1-1.3-1.7-2.4-2-1-.2-2.1-.1-3 .4C1.6 1.1.7 2 .3 3.1c-.4 1-.5 2.2 0 3.2.2.5.6 1.1 1 1.5.3.3.7.6 1.1.7.2.1.4.1.6.2l.4.1-.3-1.4c-.3-.1-.7-.3-.9-.5-.3-.2-.5-.5-.6-.8-.3-.6-.4-1.2-.2-1.8.3-1.5 1.7-3.1 3.3-3 .4 0 .9.1 1.3.3l.3.2c.2.2.4.5.7 1v.1c.2.3.4.7.6 1.2.2.2.3.4.4.6 0 .1 0 .2.1.2.5 1 .9 2 1.1 2.7 0 .1.1.2.1.3-1.2 0-2.2-.1-3-.1l.3 1.3c1 .1 2.1.1 3.4.1.1.2.2.5.3.8.5 1.1.9 2.1 1.3 3.1 0 .1.1.2.1.2l.8 1.6c0 .1.1.1.1.2.4.7.9 1.3 1.5 1.6.2.1.4.2.7.2.3.1.5.1.8.2h.4c1.4 0 2.8-.8 3.6-1.9.4-.5.7-1.2.8-1.8.1-.4.2-.9.1-1.3 0-1.2-.5-2.3-1.4-3"/><path class="st0" d="M6.5 11.7L6 9.4V9l-.3-1.3-.1-.7v-.2l2-1.7c-.3-.4-.8-1.4-1-1.8L3.4 6.1l.1.5v.1l.2.9.3 1.3.3 1.8.4 2 .1.6 6.8 2.4.4-.4c-.2-.4-.6-1.2-1-1.9l-4.5-1.7z"/></svg>